<svg width="301" height="58" viewBox="0 0 301 58" fill="none" xmlns="http://www.w3.org/2000/svg">
<path d="M53.9999 27C53.9999 41.9116 41.9117 54 26.9999 54C12.0883 54 0 41.9116 0 27C0 12.0883 12.0883 0 26.9999 0C41.9117 0 53.9999 12.0883 53.9999 27Z" fill="#9CFCD2"/>
<path d="M47 27.0001C47 38.0457 38.0457 47 27 47C15.9543 47 7 38.0457 7 27.0001C7 15.9542 15.9543 7 27 7C38.0457 7 47 15.9542 47 27.0001Z" fill="#17E894"/>
<path d="M85.3902 46.9761C82.6102 46.9761 80.0388 46.4722 77.6758 45.4645C75.3476 44.4567 73.2974 43.0494 71.5252 41.2424C69.7877 39.4355 68.4325 37.3157 67.4595 34.8833C66.4865 32.4508 66 29.7925 66 26.9083C66 24.0241 66.4691 21.3657 67.4074 18.9333C68.3803 16.4661 69.7356 14.3463 71.473 12.5741C73.2453 10.7671 75.3129 9.37716 77.6758 8.40418C80.0388 7.39645 82.6102 6.89258 85.3902 6.89258C88.1702 6.89258 90.6547 7.3617 92.844 8.29993C95.0679 9.23817 96.9444 10.4891 98.4734 12.0529C100.002 13.5818 101.097 15.2672 101.757 17.1089L95.398 20.08C94.6683 18.134 93.4347 16.5356 91.6972 15.2846C89.9598 13.9988 87.8574 13.356 85.3902 13.356C82.9577 13.356 80.8033 13.9293 78.9268 15.0761C77.0851 16.2228 75.643 17.8039 74.6005 19.8194C73.5928 21.8348 73.0889 24.1978 73.0889 26.9083C73.0889 29.6187 73.5928 31.9991 74.6005 34.0493C75.643 36.0648 77.0851 37.6459 78.9268 38.7926C80.8033 39.9393 82.9577 40.5127 85.3902 40.5127C87.8574 40.5127 89.9598 39.8872 91.6972 38.6362C93.4347 37.3505 94.6683 35.7346 95.398 33.7887L101.757 36.7597C101.097 38.6015 100.002 40.3042 98.4734 41.8679C96.9444 43.3969 95.0679 44.6305 92.844 45.5687C90.6547 46.507 88.1702 46.9761 85.3902 46.9761Z" fill="#1E1F20"/>
<path d="M119.148 46.9761C116.368 46.9761 113.832 46.3332 111.538 45.0475C109.28 43.7618 107.473 42.0069 106.117 39.7829C104.797 37.559 104.137 35.0223 104.137 32.1728C104.137 29.3234 104.797 26.7866 106.117 24.5627C107.473 22.3387 109.28 20.5839 111.538 19.2981C113.797 18.0124 116.334 17.3695 119.148 17.3695C121.928 17.3695 124.448 18.0124 126.706 19.2981C128.965 20.5839 130.755 22.3387 132.075 24.5627C133.43 26.7519 134.108 29.2886 134.108 32.1728C134.108 35.0223 133.43 37.559 132.075 39.7829C130.72 42.0069 128.913 43.7618 126.654 45.0475C124.396 46.3332 121.894 46.9761 119.148 46.9761ZM119.148 40.7212C120.677 40.7212 122.015 40.3563 123.162 39.6266C124.343 38.8968 125.264 37.8891 125.924 36.6034C126.619 35.2829 126.967 33.806 126.967 32.1728C126.967 30.5048 126.619 29.0454 125.924 27.7944C125.264 26.5087 124.343 25.5009 123.162 24.7712C122.015 24.0067 120.677 23.6244 119.148 23.6244C117.585 23.6244 116.212 24.0067 115.031 24.7712C113.849 25.5009 112.911 26.5087 112.216 27.7944C111.556 29.0454 111.225 30.5048 111.225 32.1728C111.225 33.806 111.556 35.2829 112.216 36.6034C112.911 37.8891 113.849 38.8968 115.031 39.6266C116.212 40.3563 117.585 40.7212 119.148 40.7212Z" fill="#1E1F20"/>
<path d="M138.139 46.3506V17.995H144.551V24.3021L144.03 23.3638C144.69 21.2441 145.715 19.7673 147.105 18.9333C148.53 18.0993 150.232 17.6823 152.213 17.6823H153.881V23.7287H151.431C149.485 23.7287 147.921 24.3368 146.74 25.553C145.558 26.7345 144.968 28.4025 144.968 30.557V46.3506H138.139Z" fill="#1E1F20"/>
<path d="M165.089 46.9761C163.108 46.9761 161.388 46.646 159.929 45.9857C158.469 45.3255 157.34 44.3872 156.541 43.171C155.741 41.92 155.342 40.4779 155.342 38.8447C155.342 37.281 155.689 35.891 156.384 34.6748C157.079 33.4238 158.156 32.3813 159.616 31.5473C161.075 30.7133 162.917 30.1226 165.141 29.7751L174.419 28.2635V33.4759L166.444 34.8311C165.089 35.0744 164.081 35.5088 163.421 36.1343C162.761 36.7597 162.431 37.5764 162.431 38.5841C162.431 39.5571 162.795 40.3389 163.525 40.9297C164.29 41.4857 165.228 41.7637 166.34 41.7637C167.765 41.7637 169.016 41.4683 170.093 40.8776C171.205 40.2521 172.056 39.4007 172.647 38.3235C173.272 37.2462 173.585 36.0648 173.585 34.779V27.4816C173.585 26.2654 173.099 25.2577 172.126 24.4584C171.187 23.6244 169.936 23.2075 168.373 23.2075C166.913 23.2075 165.61 23.6071 164.463 24.4063C163.351 25.1708 162.535 26.1959 162.014 27.4816L156.436 24.7712C156.992 23.277 157.861 21.9912 159.043 20.914C160.259 19.802 161.683 18.9333 163.317 18.3078C164.95 17.6823 166.722 17.3695 168.633 17.3695C170.962 17.3695 173.012 17.8039 174.784 18.6726C176.556 19.5066 177.929 20.6881 178.902 22.2171C179.91 23.7113 180.413 25.4662 180.413 27.4816V46.3506H173.95V41.503L175.41 41.3988C174.68 42.615 173.811 43.6401 172.803 44.4741C171.796 45.2734 170.649 45.8989 169.363 46.3506C168.077 46.7676 166.653 46.9761 165.089 46.9761Z" fill="#1E1F20"/>
<path d="M185.578 46.3506V6.89258H192.406V46.3506H185.578Z" fill="#1E1F20"/>
<path d="M211.429 46.9761C208.649 46.9761 206.112 46.3332 203.819 45.0475C201.56 43.7618 199.753 42.0069 198.398 39.7829C197.077 37.559 196.417 35.0223 196.417 32.1728C196.417 29.3234 197.077 26.7866 198.398 24.5627C199.753 22.3387 201.56 20.5839 203.819 19.2981C206.078 18.0124 208.614 17.3695 211.429 17.3695C214.209 17.3695 216.728 18.0124 218.987 19.2981C221.246 20.5839 223.035 22.3387 224.356 24.5627C225.711 26.7519 226.389 29.2886 226.389 32.1728C226.389 35.0223 225.711 37.559 224.356 39.7829C223.001 42.0069 221.194 43.7618 218.935 45.0475C216.676 46.3332 214.174 46.9761 211.429 46.9761ZM211.429 40.7212C212.958 40.7212 214.296 40.3563 215.443 39.6266C216.624 38.8968 217.545 37.8891 218.205 36.6034C218.9 35.2829 219.248 33.806 219.248 32.1728C219.248 30.5048 218.9 29.0454 218.205 27.7944C217.545 26.5087 216.624 25.5009 215.443 24.7712C214.296 24.0067 212.958 23.6244 211.429 23.6244C209.865 23.6244 208.493 24.0067 207.311 24.7712C206.13 25.5009 205.191 26.5087 204.496 27.7944C203.836 29.0454 203.506 30.5048 203.506 32.1728C203.506 33.806 203.836 35.2829 204.496 36.6034C205.191 37.8891 206.13 38.8968 207.311 39.6266C208.493 40.3563 209.865 40.7212 211.429 40.7212Z" fill="#1E1F20"/>
<path d="M244.181 57.8179C242.061 57.8179 240.098 57.4704 238.291 56.7754C236.484 56.0804 234.92 55.1075 233.6 53.8565C232.314 52.6402 231.376 51.1981 230.785 49.5302L237.144 47.1325C237.561 48.4529 238.378 49.5128 239.594 50.312C240.845 51.146 242.374 51.563 244.181 51.563C245.571 51.563 246.787 51.3024 247.83 50.7812C248.907 50.2599 249.741 49.4954 250.332 48.4877C250.922 47.5147 251.218 46.3332 251.218 44.9432V38.4798L252.521 40.0436C251.548 41.7463 250.245 43.032 248.611 43.9008C246.978 44.7695 245.119 45.2039 243.034 45.2039C240.393 45.2039 238.03 44.5957 235.945 43.3795C233.86 42.1633 232.227 40.4953 231.046 38.3756C229.864 36.2559 229.273 33.8755 229.273 31.2346C229.273 28.5589 229.864 26.1785 231.046 24.0936C232.227 22.0086 233.843 20.3754 235.893 19.1939C237.943 17.9777 240.272 17.3695 242.878 17.3695C244.997 17.3695 246.857 17.8213 248.455 18.7248C250.088 19.5935 251.443 20.8619 252.521 22.5298L251.582 24.2499V17.995H258.046V44.9432C258.046 47.4105 257.438 49.617 256.222 51.563C255.04 53.509 253.407 55.038 251.322 56.1499C249.272 57.2619 246.891 57.8179 244.181 57.8179ZM243.868 38.8968C245.328 38.8968 246.596 38.5841 247.673 37.9586C248.785 37.2984 249.654 36.3949 250.279 35.2481C250.905 34.1014 251.218 32.7809 251.218 31.2867C251.218 29.8272 250.887 28.5241 250.227 27.3774C249.602 26.1959 248.733 25.275 247.621 24.6148C246.544 23.9546 245.293 23.6244 243.868 23.6244C242.443 23.6244 241.158 23.9546 240.011 24.6148C238.864 25.275 237.961 26.1959 237.3 27.3774C236.675 28.5241 236.362 29.8272 236.362 31.2867C236.362 32.7462 236.675 34.0493 237.3 35.196C237.961 36.3428 238.847 37.2462 239.959 37.9065C241.106 38.5667 242.409 38.8968 243.868 38.8968Z" fill="#1E1F20"/>
<path d="M263.276 46.3506V17.995H270.105V46.3506H263.276ZM263.276 14.8155V7.51807H270.105V14.8155H263.276Z" fill="#1E1F20"/>
<path d="M272.708 46.3506L282.612 32.1207L272.656 17.995H280.683L288.45 29.4624H284.853L292.62 17.995H300.595L290.691 32.1207L300.543 46.3506H292.568L284.905 34.9354H288.398L280.735 46.3506H272.708Z" fill="#1E1F20"/>
</svg>
